<svg xmlns="http://www.w3.org/2000/svg" version="1.1" xmlns:xlink="http://www.w3.org/1999/xlink" xmlns:svgjs="http://svgjs.dev/svgjs" viewBox="0 0 1422 800"><defs><linearGradient x1="50%" y1="0%" x2="50%" y2="100%" id="oooscillate-grad"><stop stop-color="#8c977d" stop-opacity="1" offset="0%"></stop><stop stop-color="#ff7700" stop-opacity="1" offset="100%"></stop></linearGradient></defs><g stroke-width="1" stroke="url(#oooscillate-grad)" fill="none" stroke-linecap="round"><path d="M 0 924 Q 355.5 -100 711 400 Q 1066.5 900 1422 924" stroke-dasharray="8 5" opacity="0.66"></path><path d="M 0 903 Q 355.5 -100 711 400 Q 1066.5 900 1422 903" stroke-dasharray="3 8" opacity="0.79"></path><path d="M 0 882 Q 355.5 -100 711 400 Q 1066.5 900 1422 882" stroke-dasharray="10 4" opacity="0.55"></path><path d="M 0 861 Q 355.5 -100 711 400 Q 1066.5 900 1422 861" stroke-dasharray="0 7" opacity="0.49"></path><path d="M 0 840 Q 355.5 -100 711 400 Q 1066.5 900 1422 840" stroke-dasharray="2 4" opacity="0.60"></path><path d="M 0 819 Q 355.5 -100 711 400 Q 1066.5 900 1422 819" stroke-dasharray="2 3" opacity="0.59"></path><path d="M 0 798 Q 355.5 -100 711 400 Q 1066.5 900 1422 798" stroke-dasharray="9 2" opacity="0.35"></path><path d="M 0 777 Q 355.5 -100 711 400 Q 1066.5 900 1422 777" stroke-dasharray="8 8" opacity="0.88"></path><path d="M 0 756 Q 355.5 -100 711 400 Q 1066.5 900 1422 756" stroke-dasharray="7 7" opacity="1.00"></path><path d="M 0 735 Q 355.5 -100 711 400 Q 1066.5 900 1422 735" stroke-dasharray="2 0" opacity="0.46"></path><path d="M 0 714 Q 355.5 -100 711 400 Q 1066.5 900 1422 714" stroke-dasharray="8 9" opacity="0.87"></path><path d="M 0 693 Q 355.5 -100 711 400 Q 1066.5 900 1422 693" stroke-dasharray="3 3" opacity="0.55"></path><path d="M 0 672 Q 355.5 -100 711 400 Q 1066.5 900 1422 672" stroke-dasharray="2 10" opacity="0.09"></path><path d="M 0 651 Q 355.5 -100 711 400 Q 1066.5 900 1422 651" stroke-dasharray="0 6" opacity="0.45"></path><path d="M 0 630 Q 355.5 -100 711 400 Q 1066.5 900 1422 630" stroke-dasharray="7 2" opacity="0.70"></path><path d="M 0 609 Q 355.5 -100 711 400 Q 1066.5 900 1422 609" stroke-dasharray="7 9" opacity="0.71"></path><path d="M 0 588 Q 355.5 -100 711 400 Q 1066.5 900 1422 588" stroke-dasharray="0 7" opacity="0.24"></path><path d="M 0 567 Q 355.5 -100 711 400 Q 1066.5 900 1422 567" stroke-dasharray="8 9" opacity="0.85"></path><path d="M 0 546 Q 355.5 -100 711 400 Q 1066.5 900 1422 546" stroke-dasharray="3 7" opacity="0.63"></path><path d="M 0 525 Q 355.5 -100 711 400 Q 1066.5 900 1422 525" stroke-dasharray="7 8" opacity="0.97"></path><path d="M 0 504 Q 355.5 -100 711 400 Q 1066.5 900 1422 504" stroke-dasharray="3 7" opacity="0.81"></path><path d="M 0 483 Q 355.5 -100 711 400 Q 1066.5 900 1422 483" stroke-dasharray="1 6" opacity="0.37"></path><path d="M 0 462 Q 355.5 -100 711 400 Q 1066.5 900 1422 462" stroke-dasharray="1 1" opacity="0.97"></path><path d="M 0 441 Q 355.5 -100 711 400 Q 1066.5 900 1422 441" stroke-dasharray="9 4" opacity="0.34"></path><path d="M 0 420 Q 355.5 -100 711 400 Q 1066.5 900 1422 420" stroke-dasharray="9 9" opacity="0.52"></path><path d="M 0 399 Q 355.5 -100 711 400 Q 1066.5 900 1422 399" stroke-dasharray="2 5" opacity="0.10"></path><path d="M 0 378 Q 355.5 -100 711 400 Q 1066.5 900 1422 378" stroke-dasharray="9 2" opacity="0.27"></path><path d="M 0 357 Q 355.5 -100 711 400 Q 1066.5 900 1422 357" stroke-dasharray="2 3" opacity="0.94"></path><path d="M 0 336 Q 355.5 -100 711 400 Q 1066.5 900 1422 336" stroke-dasharray="5 5" opacity="0.47"></path><path d="M 0 315 Q 355.5 -100 711 400 Q 1066.5 900 1422 315" stroke-dasharray="8 2" opacity="0.51"></path><path d="M 0 294 Q 355.5 -100 711 400 Q 1066.5 900 1422 294" stroke-dasharray="2 8" opacity="0.66"></path><path d="M 0 273 Q 355.5 -100 711 400 Q 1066.5 900 1422 273" stroke-dasharray="3 6" opacity="0.11"></path><path d="M 0 252 Q 355.5 -100 711 400 Q 1066.5 900 1422 252" stroke-dasharray="8 10" opacity="0.94"></path><path d="M 0 231 Q 355.5 -100 711 400 Q 1066.5 900 1422 231" stroke-dasharray="9 4" opacity="0.27"></path><path d="M 0 210 Q 355.5 -100 711 400 Q 1066.5 900 1422 210" stroke-dasharray="7 8" opacity="0.34"></path><path d="M 0 189 Q 355.5 -100 711 400 Q 1066.5 900 1422 189" stroke-dasharray="6 8" opacity="0.07"></path><path d="M 0 168 Q 355.5 -100 711 400 Q 1066.5 900 1422 168" stroke-dasharray="3 8" opacity="0.08"></path><path d="M 0 147 Q 355.5 -100 711 400 Q 1066.5 900 1422 147" stroke-dasharray="3 9" opacity="0.69"></path><path d="M 0 126 Q 355.5 -100 711 400 Q 1066.5 900 1422 126" stroke-dasharray="7 1" opacity="0.18"></path><path d="M 0 105 Q 355.5 -100 711 400 Q 1066.5 900 1422 105" stroke-dasharray="5 8" opacity="0.56"></path><path d="M 0 84 Q 355.5 -100 711 400 Q 1066.5 900 1422 84" stroke-dasharray="3 6" opacity="0.43"></path><path d="M 0 63 Q 355.5 -100 711 400 Q 1066.5 900 1422 63" stroke-dasharray="8 9" opacity="0.85"></path><path d="M 0 42 Q 355.5 -100 711 400 Q 1066.5 900 1422 42" stroke-dasharray="7 4" opacity="0.56"></path></g></svg>