<svg id="visual" viewBox="0 0 900 200" width="900" height="200" xmlns="http://www.w3.org/2000/svg" xmlns:xlink="http://www.w3.org/1999/xlink" version="1.1"><path d="M0 67L13.7 61.3C27.3 55.7 54.7 44.3 82 42.7C109.3 41 136.7 49 163.8 54.3C191 59.7 218 62.3 245.2 62.7C272.3 63 299.7 61 327 55.3C354.3 49.7 381.7 40.3 409 47.7C436.3 55 463.7 79 491 84C518.3 89 545.7 75 573 75C600.3 75 627.7 89 654.8 90.3C682 91.7 709 80.3 736.2 73.3C763.3 66.3 790.7 63.7 818 59C845.3 54.3 872.7 47.7 886.3 44.3L900 41L900 0L886.3 0C872.7 0 845.3 0 818 0C790.7 0 763.3 0 736.2 0C709 0 682 0 654.8 0C627.7 0 600.3 0 573 0C545.7 0 518.3 0 491 0C463.7 0 436.3 0 409 0C381.7 0 354.3 0 327 0C299.7 0 272.3 0 245.2 0C218 0 191 0 163.8 0C136.7 0 109.3 0 82 0C54.7 0 27.3 0 13.7 0L0 0Z" fill="#fa7268"></path><path d="M0 83L13.7 79.7C27.3 76.3 54.7 69.7 82 67.7C109.3 65.7 136.7 68.3 163.8 71.3C191 74.3 218 77.7 245.2 79C272.3 80.3 299.7 79.7 327 75.7C354.3 71.7 381.7 64.3 409 73.3C436.3 82.3 463.7 107.7 491 113.7C518.3 119.7 545.7 106.3 573 105C600.3 103.7 627.7 114.3 654.8 116.7C682 119 709 113 736.2 108.7C763.3 104.3 790.7 101.7 818 95.3C845.3 89 872.7 79 886.3 74L900 69L900 39L886.3 42.3C872.7 45.7 845.3 52.3 818 57C790.7 61.7 763.3 64.3 736.2 71.3C709 78.3 682 89.7 654.8 88.3C627.7 87 600.3 73 573 73C545.7 73 518.3 87 491 82C463.7 77 436.3 53 409 45.7C381.7 38.3 354.3 47.7 327 53.3C299.7 59 272.3 61 245.2 60.7C218 60.3 191 57.7 163.8 52.3C136.7 47 109.3 39 82 40.7C54.7 42.3 27.3 53.7 13.7 59.3L0 65Z" fill="#ef5f67"></path><path d="M0 121L13.7 122C27.3 123 54.7 125 82 128C109.3 131 136.7 135 163.8 133.3C191 131.7 218 124.3 245.2 126.3C272.3 128.3 299.7 139.7 327 146.7C354.3 153.7 381.7 156.3 409 158.7C436.3 161 463.7 163 491 159.3C518.3 155.7 545.7 146.3 573 143.7C600.3 141 627.7 145 654.8 144C682 143 709 137 736.2 134.7C763.3 132.3 790.7 133.7 818 137.3C845.3 141 872.7 147 886.3 150L900 153L900 67L886.3 72C872.7 77 845.3 87 818 93.3C790.7 99.7 763.3 102.3 736.2 106.7C709 111 682 117 654.8 114.7C627.7 112.3 600.3 101.7 573 103C545.7 104.3 518.3 117.7 491 111.7C463.7 105.7 436.3 80.3 409 71.3C381.7 62.3 354.3 69.7 327 73.7C299.7 77.7 272.3 78.3 245.2 77C218 75.7 191 72.3 163.8 69.3C136.7 66.3 109.3 63.7 82 65.7C54.7 67.7 27.3 74.3 13.7 77.7L0 81Z" fill="#e34c67"></path><path d="M0 173L13.7 172.3C27.3 171.7 54.7 170.3 82 173C109.3 175.7 136.7 182.3 163.8 181.3C191 180.3 218 171.7 245.2 169C272.3 166.3 299.7 169.7 327 172.3C354.3 175 381.7 177 409 178.3C436.3 179.7 463.7 180.3 491 177C518.3 173.7 545.7 166.3 573 167.7C600.3 169 627.7 179 654.8 181C682 183 709 177 736.2 176.7C763.3 176.3 790.7 181.7 818 181C845.3 180.3 872.7 173.7 886.3 170.3L900 167L900 151L886.3 148C872.7 145 845.3 139 818 135.3C790.7 131.7 763.3 130.3 736.2 132.7C709 135 682 141 654.8 142C627.7 143 600.3 139 573 141.7C545.7 144.3 518.3 153.7 491 157.3C463.7 161 436.3 159 409 156.7C381.7 154.3 354.3 151.7 327 144.7C299.7 137.7 272.3 126.3 245.2 124.3C218 122.3 191 129.7 163.8 131.3C136.7 133 109.3 129 82 126C54.7 123 27.3 121 13.7 120L0 119Z" fill="#d53867"></path><path d="M0 201L13.7 201C27.3 201 54.7 201 82 201C109.3 201 136.7 201 163.8 201C191 201 218 201 245.2 201C272.3 201 299.7 201 327 201C354.3 201 381.7 201 409 201C436.3 201 463.7 201 491 201C518.3 201 545.7 201 573 201C600.3 201 627.7 201 654.8 201C682 201 709 201 736.2 201C763.3 201 790.7 201 818 201C845.3 201 872.7 201 886.3 201L900 201L900 165L886.3 168.3C872.7 171.7 845.3 178.3 818 179C790.7 179.7 763.3 174.3 736.2 174.7C709 175 682 181 654.8 179C627.7 177 600.3 167 573 165.7C545.7 164.3 518.3 171.7 491 175C463.7 178.3 436.3 177.7 409 176.3C381.7 175 354.3 173 327 170.3C299.7 167.7 272.3 164.3 245.2 167C218 169.7 191 178.3 163.8 179.3C136.7 180.3 109.3 173.7 82 171C54.7 168.3 27.3 169.7 13.7 170.3L0 171Z" fill="#c62368"></path></svg>