<svg xmlns="http://www.w3.org/2000/svg" version="1.1" xmlns:xlink="http://www.w3.org/1999/xlink" xmlns:svgjs="http://svgjs.dev/svgjs" viewBox="0 0 1422 800"><defs><linearGradient x1="50%" y1="0%" x2="50%" y2="100%" id="ssscribble-grad"><stop stop-color="#ff7700" stop-opacity="1" offset="0%"></stop><stop stop-color="#8c977d" stop-opacity="1" offset="100%"></stop></linearGradient></defs><g fill="none" stroke-width="1.5" stroke="url(#ssscribble-grad)" stroke-linecap="round"><path d="M1365.92 313.17C1326.27 339.68 1352.44 362.39 1430.32 381.6 1527.08 401.1 1598.7 417.71 1615.8 432.26 1572.41 448.21 1484.19 463.63 1384.28 480.06 1306.54 500.07 1275.58 523.55 1296.17 552.32 1358.04 587.08 1433.79 629.02 1495.34 678.79 1523.81 733.83 1506.75 794.73 1449.25 858.95 1364.55 920.73 1273.32 978.17 1194.79 1025.93 1131.11 1067.17 1184.2 1032.96 1247.52 970.85 1289.29 914.28 1248.38 922.57 1175.91 1009.05 1114.78 1087.97 1051.57 1167.52 990.58 1232.16 930.78 1268.83 877.38 1269.76 830.79 1234.45 788.19 1174.31 751.55 1103.27 719.45 1041.31 689.86 1008.8 662.66 1014.91 636.52 1060.82 611.07 1135.87 585.32 1219.48 558.82 1287.41 532.31 1319.84 505.65 1306.18 479.47 1251.7 453.98 1172.46 430.3 1089.9 409.89 1025.46 392 994.67 379.52 1002.52 374.03 1043.35 372.52 1106.34 378.85 1171.49 392.7 1221.59 407.75 1246.09 426.16 1236.61 443.77 1195.41 452.36 1129.94 450.79 1052.04 433.54 974.94 397.45 908.89 342.38 862.93 270.49 840.08 190.96 840.73 111.11 859.63 43.33 889.55 -0.13 926.4 -12.44 959.85 9.54 984.17 56.77 998.41 118.48 997.6 175.58 982.34 205.48 954.52 196.85 915.74 144.73 869.65 59.53 817.3 -37.81 763.06 -119.11 709.62 -159.13 655.75 -145.43 605.42 -82.65 559.34 2.29 514.94 77.84 474.83 111.01 438.59 83.68 403.66 4.26 371.6 -97.74 341.83 -180.86 312.46 -209.72 284.61 -170.07 258.1 -80.15 231.59 20.33 207.05 88.53 184.78 96.92 162.92 45.53 144.09 -40.69 129.02 -127.2 115.27 -175.89 106.27 -168.09 102.57 -106.65 100.55 -12.29 103.8 83.35 111.74 152.03 119.23 175.31 128.67 152.63 137.5 94.47 140.06 25.5 136.58 -30.53 123.55 -58.5 97.96 -46.83 59.32 1.23 7.15 76.46 -55.09 162.94 -124.94 244.81 -196.53 311.68 -261.2 354.18 -313.2 371.56 -345.16 365.25 -353.61 343.01 -337.17 313.57 -298.73 280.17 -249.24 253.5 -197.03 237.77 -155.2 231.81 -137.63 239.6 -149.75 259.14 -193.67 288.12 -263.2 324.63 -345.61 365.24 -423.56 410.15 -479.36 455.16 -499.88 498.18 -479.34 542.19 -425.13 582.6 -350.37 618.62 -276.38 654.71 -227.13 686.17 -216.15 712.69 -248.56 739.2 -316.48 760.12 -397.4 775.67 -467.22 791.29 -507.9 801.76 -506.22 807.74 -463.49 814.72 -391.3 818.83 -307.6 822.01 -232.5 829.5 -182.21 840.07 -165.88 857.02 -183.11 883.41 -228.32 920.43 -286.26 969.9 -341.55 1029.16 -383.44 1098.09 -399.63 1172.35 -386.9 1242.65 -347.39 1304.35 -286.66 1348.59 -214.4 1369.15 -138.78 1363.06 -70.1 1330.94 -14.86 1257.12 34 1178.64 30.08 1243.12 0.16 1326.76 -23.19 1421.42 -41.83 1503.23 -53.35 1549.56 -59.59 1547.9 -56.73 1498.66 -45.55 1422.45 -28.38 1345.34 -4.78 1298.85 23.29 1305.99 54.97 1367.33 88.65 1464.07 122.7 1560.53 158.14 1619.73 192.41 1616.61 224.54 1553.68 256.97 1455.88 286.65 1365.95 313.16Q1365.92 313.17 1365.92 313.17" opacity="0.94"></path><path d="M1317.92 247.08C1278.79 271.93 1297.56 296.67 1364.56 321.54 1454.95 346.8 1531.95 372.96 1567.41 400.72 1549.95 429.93 1484.27 462 1392.77 497.77 1303.17 536.02 1241.92 578.86 1223.46 626.44 1249.86 675.96 1307.56 729.11 1375.49 784.33 1435.02 837.37 1465.56 888.14 1459.12 933.21 1416.97 968.85 1347.45 993.19 1265.29 1003.39 1183.39 1000.1 1116.37 982.42 1071.92 952.32 1052.93 917.29 1057.46 880.13 1078.77 848.1 1112.71 830.64 1148.05 831.19 1177.64 853.99 1200.25 899.26 1209.01 962.95 1203.7 1037.5 1186.4 1111.26 1157.53 1173.33 1120.59 1212.36 1076.62 1221.91 1029.72 1199.81 982.76 1150.49 933.94 1087.56 887.86 1023.78 845.62 975.47 803.54 957.52 765.76 974.64 732.39 1025.13 699.23 1098.31 670.18 1176.42 645.33 1239.41 620.47 1271.1 600.41 1262.24 585.16 1216.29 570.12 1145.44 560.2 1066.61 555.41 998.1 550.78 954.66 550.82 943.95 554.55 965.24 556.42 1013.04 559.18 1072.88 560.07 1130.1 553.95 1174.12 540.82 1193.02 517.32 1183.3 481.81 1146.85 433.44 1088.85 372.53 1018.79 304.63 945.3 232.3 878.68 162.8 825.85 86.6 782.57 83.56 803.63 154.12 843.28 227.86 883.38 218.31 912.8 109.29 895.98 19.19 873.35 -58.75 843.31 -103.37 808.27 -103.12 768.64 -58.06 727.16 17.51 685.69 94.99 642.7 148.8 601.51 156.67 563 111.62 524.32 27.3 488.82 -68 456.81 -139.92 424.84 -161.2 396.33 -122.07 371.48 -38.55 346.62 56.78 326.02 127.88 309.57 149.31 293.18 116.12 280.98 43.85 272.79 -74.43 261.99 -67.19 252.52 58.47 247.76 146.01 239.73 207.2 227.76 229.9 209.59 211.93 183.31 164.17 148.3 103.93 103.66 46.06 51.34 9.49 -8.37 2.94 -72.67 27.54 -135.6 80.03 -194.28 150.31 -242.9 229.45 -276.26 304.72 -291.2 367.72 -285.32 414.67 -261.84 442.27 -222.89 452.69 -175.29 439.98 -114.14 382.39 -114.9 361.3 -196.71 353.16 -272.14 353.35 -348.17 361.1 -410 373.22 -445.32 391.1 -446.48 412.93 -412.65 437.07 -353.74 463 -282.22 489.35 -216.28 516.28 -175.24 542.47 -168.88 567.32 -200.56 592.17 -263.54 615.11 -339.14 636.58 -407.4 658.64 -452.99 680.41 -462.81 703.14 -435.27 728.17 -377.39 756.34 -301.73 789.3 -224.77 826.64 -161.43 870.59 -123.14 921.79 -114.47 976.77 -135.27 1037.15 -177.09 1100.31 -228.68 1159.77 -281.06 1214.17 -320.67 1257.8 -340.07 1285.7 -336.99 1295.1 -309.87 1283.71 -263.07 1256.27 -201.69 1215.13 -133.51 1168.56 -65.91 1130.85 -3.23 1109.37 48.57 1114.12 87.41 1150 112.78 1214.23 125.42 1297.98 128.09 1384.1 121.33 1455.95 110.17 1496.09 97.94 1495.57 83.52 1454.65 72.37 1385.33 65.92 1285.96 62.06 1320.76 85.86 1454.57 110.51 1536.44 129.61 1576.96 151.15 1560.46 174.3 1494.29 197.84 1401.48 222.21 1317.95 247.07Q1317.92 247.08 1317.92 247.08" opacity="0.40"></path><path d="M1269.92 321.57C1231.59 344.77 1243.61 370.93 1299.78 399.97 1381.97 429.17 1460.43 461.52 1509.77 497.02 1516.09 532.85 1476 571.89 1402.03 613.77 1314.07 655.39 1235.52 698.92 1184.73 743.1 1171.73 784.73 1195.46 824.46 1245.14 860.06 1336.26 899.98 1397.3 921.24 1336.53 898.48 1268.15 874.06 1192.28 844.07 1119.73 812.67 1057.14 787.49 1011.88 770.69 985.45 767.39 977.7 781.99 984.93 814.68 1001.8 864.77 1026.75 927.55 1051.8 997.14 1072.82 1064.97 1095.73 1139.91 1089.5 1136.49 1063.82 1061.02 1040.4 1001.32 1013.59 948.47 985.27 914.89 955.12 910.59 925.39 936.95 897.25 990.4 868.69 1060.84 842.57 1133.29 819.37 1191.41 796.18 1222.18 776.46 1217.63 759.83 1179.84 742.79 1117.84 728 1044.55 714.41 975.09 698.98 922.62 682.82 895.98 664.15 897.86 641.19 926.97 613.11 974.22 578.19 1028.63 537.18 1081.4 488.39 1120.01 432.19 1137.7 373.09 1132.59 311.06 1103.82 250.36 1056 197.74 994.63 155.98 927.6 130.55 862.36 123.79 803.76 137.19 757.39 169.38 725.24 211.53 708 258.45 704.2 299.44 710.72 321.35 726.69 318.44 746.41 285.76 766.26 225.83 786.69 146.98 802.28 63.35 811.6 -28.32 815.61 11.86 783.13 118.45 751.56 179.33 726.43 208.34 699.35 193.08 671.57 134.78 642.6 49.5 614.18 -37.27 587.09 -98.03 559.73 -112.4 534.27 -74.07 511.07 3.09 487.88 92.76 467.5 165.12 449.67 197.47 431.57 181.75 415.48 126.08 400.7 47.91 384.74 -25.13 368.85 -70.48 351.89 -76.15 332.12 -38.71 309.45 31.12 282.57 116.72 251.18 197.41 214.17 256.34 170.99 283.42 123.58 276.68 71.02 242.97 14.83 190.84 -40.75 136.69 -95.01 93.42 -144.16 67.8 -183.88 67.7 -211.94 92.45 -225.1 138.7 -223.36 199.96 -205.94 267.96 -174.74 337.86 -136.89 401.28 -95.68 454.15 -58.47 495.72 -34.79 524.1 -28.49 541.14 -44.06 547.65 -82.44 547.33 -139.95 543.58 -209.72 535.38 -281.13 528.17 -343.49 523.93 -385.69 519.32 -400.68 519.36 -385.13 524.38 -341.62 530.08 -281.11 540.59 -214.65 555.61 -157.23 570.94 -124.02 590.26 -121.8 613.46 -152.56 636.65 -210.67 663.17 -280.78 693.02 -346.63 723.18 -395.5 757.19 -415.04 795.23 -401.8 833.95 -359.28 876.89 -295.36 923.58 -222.56 969.91 -153.4 1018.31 -99.48 1066.72 -68.11 1110.67 -62.84 1150.19 -81.17 1181.77 -116.8 1202.82 -163.93 1211.42 -211.06 1205.61 -249.68 1188.49 -275.62 1159.6 -282.49 1122.89 -269.69 1088.08 -239.01 1058.67 -193.26 1042.81 -137.67 1048.45 -75.87 1077.5 -14.03 1130.5 43.57 1201.16 95.43 1281.14 138.12 1357.42 171.22 1415.3 195.07 1444.52 210.47 1438.14 219.43 1399.91 221.92 1338.13 221.39 1269.53 219.95 1216.68 215.97 1194.33 213.64 1213.08 214.1 1271.51 214.3 1355.63 218.23 1442.75 226.15 1507.38 234.4 1529.94 246.57 1502.2 262.55 1434.44 278.69 1347.13 298.37 1269.95 321.56Q1269.92 321.57 1269.92 321.57" opacity="0.65"></path><path d="M1221.92 468.17C1184.66 489.71 1190.65 514.09 1236.27 541 1308.87 567.76 1385.18 596.73 1443.54 627.32 1469.76 657.14 1455.32 687.71 1404.77 717.98 1330.16 746.14 1248.96 772.39 1178.76 795.3 1132.64 814.09 1118.02 827.6 1133.76 834.52 1174.95 835.96 1228.47 830.04 1281.25 816.74 1324.61 799.75 1347.21 777.85 1345.49 753.33 1320.19 731.86 1274.27 713.81 1214.77 702.99 1147.16 704.03 1080.23 717.72 1020.07 745.81 969.16 787.77 931.52 841.66 906.99 903.71 895.01 967.39 893.11 1027.19 897.88 1075.93 909.32 1107.59 922.08 1118.14 933.48 1105.58 945.72 1073.52 953.72 1025.6 956.74 969.86 956.5 898.65 930.08 884.81 906.82 956.48 889.87 1023.41 870.49 1090.1 848.95 1143.41 827.41 1173.08 804.23 1172.32 779.22 1142.22 753.83 1089.28 725.89 1023.01 694.84 955.44 662.56 897.73 626.27 858.73 585.63 843.12 543.53 852.5 497.27 882.39 447.71 925.74 398.98 976.44 349.82 1023.52 303.01 1059.38 262.87 1080.38 230.44 1081.54 209.22 1063.13 200.55 1027.48 206.13 978.21 226.22 920.85 255.57 859.47 292.92 800.15 332.3 747.05 363.57 702.02 382.61 667.76 382.47 644.27 358.76 631.44 312.18 627.45 246.39 629.88 171.18 638.78 96.79 649.94 36.39 661.07 1.44 673.66 -1.49 683.36 28.83 689.19 83.25 693.78 150.43 693.74 212.87 689.24 251.28 683.08 255.43 672.99 220.89 659.59 154.22 645.19 71.57 628.33 -5.27 609.56 -55.16 590.5 -63.33 570.09 -26.07 548.55 44.81 527.01 128.37 504.85 200.43 481.96 241.36 458.77 241.62 434.3 203.81 408.08 138.39 380.86 66.14 351.05 6.93 318.13 -25.69 283.56 -21.64 245.34 17.44 203.43 83.17 160.27 161.61 114.17 237.22 66.22 297.69 19.72 333.25 -25.77 341.41 -67.86 323.19 -103.5 286.61 -131.57 241.55 -149.56 194.63 -156.9 157.62 -152.21 136.49 -135.42 132.62 -110.55 148.5 -78.12 181.22 -42.17 227.94 -10.24 283.37 15.04 342.17 28.27 402.61 24.26 458.88 2.23 508.66 -37.97 552.69 -93.03 588.59 -157.67 617.2 -224.15 648.38 -305.26 686.39 -330.96 701.65 -267.21 710.74 -207.96 722.04 -148.02 736.36 -99.35 750.42 -73.49 768.06 -74.9 789.59 -104.56 811.13 -157.87 836.06 -222.37 863.96 -285.04 891.59 -335.64 921.63 -362.95 953.16 -362.52 983.37 -335.42 1013.57 -285.67 1042.16 -222.04 1067.23 -154.14 1088.17 -92.2 1102.98 -44.35 1111.71 -15.99 1112.21 -8.98 1103.55 -21.43 1089.14 -50.95 1067.2 -89.88 1039.96 -131.13 1002.67 -185.71 980.02 -213.25 1018.95 -179.47 1068.31 -140.42 1132.2 -92.8 1204.55 -40.5 1275.05 14.82 1335.61 68.78 1376.27 118.96 1390.55 165.47 1375.87 205.72 1334.62 239.64 1278.22 268.1 1217.33 290.98 1167.38 309.52 1144.07 323.94 1154.03 335.94 1198.81 346.86 1270.17 355.67 1352.7 365 1426.44 375.8 1472.57 385.83 1478.67 398.2 1442.01 413.39 1374.22 428.43 1292.84 446.62 1221.95 468.16Q1221.92 468.17 1221.92 468.17" opacity="0.21"></path><path d="M1173.92 552.09C1138 571.97 1138.71 591.93 1174.27 611.72 1236.34 631.25 1307.39 650.1 1369.88 667.69 1410.93 684.31 1419.53 698.78 1394.55 710.31 1341.53 719.96 1271.05 725.72 1196.92 726.99 1108.44 722.99 1083.52 690.63 1138.23 666.76 1187.03 652.83 1231.91 640.72 1265.37 632.87 1284.37 632.98 1284.09 641.26 1265.35 659.6 1230.35 688.75 1182.87 728.35 1128.14 777.31 1068.84 832.12 1011 890.16 958.07 946.83 910.39 996.51 871.14 1035.24 840.26 1058.52 816.87 1064.38 800.46 1051.58 789.17 1021.34 782.96 979.55 779.06 930.29 775.65 880.99 773.09 828.84 757.82 849.04 741.99 923.23 730.24 985.99 714.52 1046.82 694.64 1095.41 674.76 1123.81 651.19 1126.31 624.21 1103.33 597.3 1059.43 567.16 1001.26 534.32 938.06 502.07 878.81 467.94 831.56 433.08 801.8 400.41 792.73 369.01 803.39 340.76 830.22 317.59 869.86 300.4 914.14 291.15 956.37 289.38 992.89 296.94 1016.92 313.97 1025.9 336.26 1019.9 364.51 998.38 395.36 963.95 421.64 919.09 441.83 867.78 450.77 814.02 443.44 759.76 418.9 709.15 376.43 664.29 319.49 625.52 252.47 594.45 182.98 570.75 97.93 548.67 69.64 535.28 135.45 536.06 195.01 538.76 252.54 540.13 294.34 539.32 308.1 538.95 290.01 535.65 241.29 529.11 171.12 522.49 94.22 512.56 28.22 499.27 -11.26 485.92 -13.99 469.32 21.92 449.44 86.6 429.56 163.69 406.87 233.99 381.49 281.1 356.05 295.19 327.83 275.17 296.95 226.02 265.99 161.97 232.47 98.68 196.77 48.46 161.5 24.24 124.82 30.45 87.66 65.42 52.53 123.17 18.71 193.06 -12.21 264.92 -38.45 327.29 -59.38 372.56 -73.34 396.62 -80.28 398.8 -78.81 382.65 -68.48 351.23 -52.08 313.09 -28.77 275.26 -0.57 228.55 40.37 214.77 85.66 249.21 70.65 285.78 40.97 328.89 -2.31 375.24 -56.55 424.75 -116.52 473.17 -177.01 518.75 -231.22 563.22 -272.63 603.37 -296.25 639.1 -298.4 672.78 -279.87 702.6 -242.12 729.2 -190.55 754.49 -135.02 777.66 -82.7 799.31 -42.73 820.59 -23.67 841.07 -28.17 860.95 -56.56 880.83 -105.15 899.64 -163.96 917.1 -222.78 941.67 -290.13 975.78 -287.33 981.68 -219.22 982.02 -158.7 977.19 -96.5 967.18 -40.13 926.8 24.73 904.31 -62.33 938.34 -111.62 977.74 -137.1 1029.08 -151.89 1089.83 -154.98 1153.72 -147.26 1216.67 -128.24 1271.58 -99.9 1311.22 -63.61 1331.18 -21.9 1327.83 22.66 1303.27 69.79 1260.17 116.25 1206.04 160.52 1153.89 203.6 1112.34 243.03 1091.93 278.58 1100.28 311.76 1137.44 341.31 1198.87 367.74 1273.38 392.27 1346.92 414.64 1403.75 435.51 1431.46 455.42 1423.24 474.73 1380.07 493.92 1313.71 512.86 1238.64 532.2 1173.95 552.08Q1173.92 552.09 1173.92 552.09" opacity="0.94"></path><path d="M1125.92 496.17C1091.61 514.4 1087.82 530.1 1114.01 543.25 1165.09 556.27 1228.39 566.5 1290.44 573.82 1354.05 582.67 1313.95 584.11 1225.17 577.42 1156.97 572.62 1094.75 566.25 1046.39 559.33 1012.37 553.68 1063.38 564.24 1121.25 588.05 1160.53 613.57 1191.74 646.63 1211.41 687.02 1219.25 732.73 1212.88 782.92 1193.77 835.07 1163.53 885.19 1124.74 931.03 1080.69 968.87 1032.26 995.56 983.56 1008.92 936.83 1007.21 891.23 991.71 849.93 962.85 813.37 923.55 779.83 880.28 750.83 836.5 725.68 798.18 703 772.32 682.93 761.65 664.54 769 647.39 795.15 630.77 837.2 614.01 890.51 597.57 948.51 580.35 1003.46 562.13 1047.41 543.9 1074.36 525.1 1079.59 506.04 1063.08 487.3 1027.94 468.95 978.57 451.72 921.74 435.73 864.34 422.04 813.13 411.66 773.49 402.06 745.4 412.55 788.77 433.48 842.25 450.28 881.61 469.93 916.59 490.27 943.5 512.06 964.24 505.76 928.2 464.7 877.76 421.15 835.06 367.19 789.01 306.39 742.14 245.28 694.97 188.41 650.46 142.5 609.81 113.35 572.5 104.47 540.1 117.84 512.45 149.95 488.79 197.32 469.13 252.16 452.61 321.64 433.17 330.89 402.36 255.89 387.09 186.81 377.24 118.14 365.74 63.46 352.21 33.67 338.82 35.61 323.1 69.92 304.88 128.48 286.65 198.81 266.36 266.03 244.25 316.9 222.28 342.2 198.79 338.66 174.28 307.42 150.4 257.09 126.18 198.67 102.39 141.68 80.21 98.75 59.59 77.2 41.57 79.47 26.5 106.24 15.36 152.72 9.1 212.87 6.82 278.11 10.16 340.35 19.39 393.97 31.94 433.22 49.32 456.14 70.42 462.16 91.21 453.57 112.23 434.24 131.05 405.92 143.43 375.15 149.02 346.17 145.45 319.38 130.67 300.1 104.77 289.59 67.87 286.51 21.98 292.67 -30.64 306.77 -86.27 327.47 -139.77 353.68 -187.08 383.41 -223.26 416.71 -244.77 451.03 -249.02 484.92 -235.03 520 -205.68 553.28 -163.18 584.03 -112.82 614.96 -63.02 642.97 -19.01 667.78 12.52 692.57 25.43 714.18 18.37 732.4 -8.56 750.63 -52.51 765.05 -105.61 775.76 -160 789.93 -228.05 800.73 -256.17 798.95 -210.34 798.14 -161.74 796.18 -106.1 794.46 -49.47 796.32 3.18 800.9 46.9 810.12 78.66 825.94 96.63 848.83 100.94 880 93.22 918.6 74.36 965 48.81 1017.87 20.21 1072.93 -10.41 1128.72 -37.85 1180.93 -59.67 1239.83 -80.19 1260.14 -67.82 1216.02 -37.75 1172.77 -10.01 1125.18 21.77 1081.28 55.97 1051.05 92.82 1039.13 129.99 1050.21 166.37 1085.12 203.3 1139.9 238.38 1207.17 271.15 1275.88 303.6 1334.92 333.57 1373.2 360.99 1383.78 388.05 1363.86 412.79 1316.61 435.27 1253 457.62 1184.51 477.94 1125.95 496.16Q1125.92 496.17 1125.92 496.17" opacity="0.53"></path><path d="M1077.92 351.83C1038.93 384.97 1097.4 407.29 1207.19 420.25 1301.2 434.58 1316.12 442.86 1247.19 450.05 1129.62 465.96 1019.22 490.56 957.54 531.09 958.51 589.16 1005.96 665.98 1067.15 755.84 1123.27 842.4 1145.79 913.91 1132.23 951 1089.25 945.8 1025.77 897.16 956.6 820.22 881.78 750.93 814.76 713.9 759.18 732.54 704.9 807.5 661.19 911.16 628.05 999.41 594.91 1032.98 573.92 994.73 565.71 905.24 562.16 761.64 599.12 738.23 595.49 828.92 557.97 883.41 487.88 905.37 388.32 891.44 283.71 846.91 196.97 779.86 161.49 704.31 188.67 624.17 269.35 551.51 362.63 490.05 407.27 434.75 373.49 389.32 266.69 350.71 144.12 314.69 78.93 280.9 117.92 247.76 233.75 214.62 349.05 183.71 393.28 157.24 344.71 133.35 244.15 118.5 157.11 116.37 127.88 120.39 176.99 138.48 277.56 167.55 392.78 192.03 481.12 211.52 524.55 212.62 521.77 183.13 489.51 121.88 450.38 32.9 399.2 -107.15 416.28 -156.64 465.29 -35.27 504.24 41.43 542.17 72.98 575.31 39.43 608.45 -48.8 635.22 -145.75 658.77 -207.94 686.31 -213.8 718.46 -157.92 762.59 -64.34 819.73 36.88 895.42 115.24 987.11 154.95 1077.31 152.37 1157.16 120.15 1203.38 77.02 1203.39 30.59 1154.35 1.34 1073.63 -5.65 1007.56 4.89 988.15 34.85 1041.66 76.38 1152.98 126.61 1272.41 178.61 1333.78 226.78 1302.36 276.3 1193.79 318.69 1077.95 351.82Q1077.92 351.83 1077.92 351.83" opacity="0.34"></path><path d="M1029.92 251.77C990.04 281.59 1030.36 308.62 1122.35 334.41 1220.26 362.39 1268.88 393.3 1248.07 430.83 1168.41 475.45 1061.53 531.18 965.87 598.62 905.07 670.51 890.25 746.56 910.99 816.78 957.66 868.79 1004.98 894.97 1037.9 886.53 1057.46 849.24 1053.68 787.8 1032.01 720.18 998.4 674.6 957.38 664.8 916.26 701.65 872.57 779.04 834.36 873.42 804.54 951.41 774.71 984.77 754.69 959.2 742.13 887.32 727.01 794.06 713.78 708.24 695.7 652.51 665.69 637.96 620.36 660.37 554.83 704.93 475.95 761.47 385.81 807.45 300.05 832.21 240.23 836.24 219.68 815.01 249.43 775.47 314.04 722.04 394.17 662.5 451.96 604 450.92 543.66 385.32 489.6 275.91 443.62 172.4 398.27 126.04 360.43 165.92 330.61 268.76 300.78 378.18 280.38 438.56 269.49 423.87 259.22 350.75 259.03 262.14 267.69 195.04 274.5 184.52 284.92 230.89 292.4 318.38 285.98 418.85 264.4 506.14 221.28 568.68 157.44 598.69 76.11 603.76 -11.48 554.44 -93.49 558.9 111 599.07 87.43 628.89 9.44 666.42 -78.88 712.23 -144.78 759.91 -170.12 818.37 -143.36 886.78 -75.92 954.59 13.54 1024.92 101.74 1086.83 170.09 1127.72 209.58 1140.54 218.76 1117.1 205.84 1068.9 174.71 1003.79 141.48 947.35 115.55 932.02 94.07 969.27 87.46 1058.23 94.52 1168.69 108.67 1258.8 132.01 1285.02 160.27 1236.16 190.73 1132.8 221.94 1029.95 251.76Q1029.92 251.77 1029.92 251.77" opacity="0.12"></path><path d="M981.92 287.99C942.27 314.5 966.39 346.38 1038.24 383.72 1129.52 422.12 1197.5 467.61 1217.64 520.17 1186.27 573.93 1112.56 633.21 1021.24 694 932.11 748.28 866.04 794.41 829.8 824.34 823.37 834.46 838.25 820.7 862.1 782.99 893.84 733.77 918.33 678.3 931.01 631.8 939.33 612.72 935.27 626.5 921.32 675.68 905.09 751.51 882.84 835.48 856.33 903.41 829.82 935.84 800.31 921.25 766.55 866.81 730.5 788.34 686.34 705.46 632.07 637.09 573.45 594.94 505.3 583.26 432.71 597.17 367.99 632.71 315.06 674.72 286.74 712.21 288.23 744.42 322.88 760.32 384.4 759.69 448.12 747.15 498.06 722.06 509.99 689.61 470.43 651.44 387.35 611.97 285.84 574.99 203.77 536.91 174.27 503.76 213.92 477.25 303.85 450.74 404.61 432.12 474.62 420.21 489.13 407.19 449.44 398.44 378.62 390.67 300.56 377.18 249.37 358.62 239.69 330.3 271.01 290.07 335.96 236.11 416.22 169.15 501.02 96.92 573.95 23.48 628.99 -39.66 667.59 -81.17 690.1 -93.27 703.22 -70.56 707.58 -21.62 711.93 46.15 721.28 114.39 729.13 158.61 745.5 167.84 772.01 135.43 798.51 67.5 833.9 -11.08 876.05 -76.69 916.69 -115.66 960.57 -114.36 1002.15 -75.85 1034.98 -9.92 1056.13 69.31 1058.4 146.14 1044.22 211.45 1009.35 256.65 959.3 281.28 913.78 286.1 880.26 278.02 876.53 264.61 913.79 244.67 988.76 229.04 1086.24 221.23 1176.5 214.6 1231.29 217.34 1227.03 228.93 1167.26 241.59 1071.88 261.47 981.95 287.98Q981.92 287.99 981.92 287.99" opacity="0.95"></path><path d="M933.92 427.18C895.59 450.38 905.97 480.36 957.13 515.96 1033.72 551.15 1106.19 590.87 1152.8 632.67 1165.08 671.28 1137.55 707.86 1080.33 737.9 1004.38 758.5 925.84 766.54 857.16 758.62 802.2 738.66 766.43 704.24 746.98 659.78 743.32 599.87 758.54 582.73 755.42 653.78 751.02 724.54 737.59 797.3 714.4 855.41 691.2 886.18 659.33 880.7 619.99 842.62 580.95 781.4 535.58 708.94 487.03 639.13 442.89 581.49 402.02 543.46 371.26 526.33 354.96 530.07 357.43 547.97 381.99 572.69 420.26 603.87 471.3 630.89 523.1 649.79 556.17 664.79 562.89 669.29 533.61 664.41 469.99 655.35 384.33 639.71 298.78 619.93 238.68 598.83 223.59 576.06 261.92 552.86 339.09 529.67 428.92 507.15 502.11 484.5 538.45 460.54 531.6 433.98 490.26 402.84 425.83 367.53 362.78 324.83 318.07 274.07 296.94 219.42 307.12 159.1 342.81 97.52 398.09 42.4 462.91 -2.99 527.6 -30.89 591.86 -37.92 647.2 -20.69 692.44 19.92 732.37 72.73 764.59 131.99 791.69 184.26 816.84 213.39 840.41 214.19 863.61 183.43 886.8 125.32 908.53 57.26 927.13 -4.54 943.77 -50.97 953.75 -69.13 954.02 -57.52 948.98 -20.35 931.85 36.51 903.34 102.54 874.4 171.15 842.88 233.07 817.99 283.44 812.69 321.77 830.02 347.02 875.28 362.18 944.15 367.89 1028 369.51 1109.43 371.09 1167.79 369.49 1187.85 371.96 1160.48 380.53 1096.25 388.67 1011.13 403.98 933.95 427.17Q933.92 427.18 933.92 427.18" opacity="0.10"></path><path d="M885.92 541.38C850 561.26 849.46 583 881.09 605.48 938.13 627.02 1002.37 647.47 1058.2 664.61 1098.32 678.25 1111.55 685.59 1098.13 684.41 1062.1 677.51 1009.46 660.85 949.51 634.86 885.7 606.59 826.85 574.09 776.78 542.31 733.39 520.28 699.7 509.04 673.72 513.67 652.94 537.64 635.77 579.24 619.47 634.93 604.61 697.73 587.81 758.82 567.93 807.41 548.04 835.81 526.02 837.41 503.39 813.85 482.19 770.45 463.19 713.39 449.52 651.71 441.04 591.76 441.98 540.55 454.74 501.86 474.17 477.02 504.47 465.49 542.22 464.3 590.64 479.87 597.69 521.71 527.47 533.56 457.06 539 381.51 537.83 316.8 530.09 277.48 521.89 274 507.81 309.92 487.93 374.6 468.05 451.79 443.3 522.25 414.01 571.53 384.26 591.27 349.25 581.9 309.36 546.36 268.98 497.79 224.38 448.47 177.64 402.76 133.75 373.11 92.08 362.23 57 367.39 32.14 389.13 20.09 421.94 24.24 463.72 42.22 508.67 75.6 552.14 120.97 597.25 168.09 637.48 213.83 671.23 249.55 704.81 265.44 731.89 259.81 751.78 231.41 771.66 182.82 783.41 125.76 787.33 70.63 789.04 7.47 761.24 7.41 744 64.68 741.82 117.16 748.62 173.23 769.51 227.57 806.45 279.61 859.67 324.82 926.08 362.36 996.1 394.18 1062.51 419.59 1112.62 440.4 1136.58 457.71 1128.17 473.44 1086.57 489.39 1023.79 504.41 950.63 521.49 885.95 541.37Q885.92 541.38 885.92 541.38" opacity="0.16"></path><path d="M837.92 525.59C798.93 558.72 851.57 576.88 945.17 575.97 1032.01 569.81 1054.85 540.46 1017.07 496.13 938.09 466.61 847.29 456.45 771.22 488.37 698.34 566.38 645.3 671.16 612.16 759.41 579.02 792.98 568.93 752.95 584.39 666.33 603.03 564.02 642.11 477.79 677.66 422.71 672 397.21 614.02 390.67 502.89 385.74 385 387.66 318.93 375.28 357.92 342.15 473.76 309.01 590.36 258.26 642.85 198.9 616.09 146.41 546.75 101.24 484.79 83.31 439.9 94.95 438.48 146.03 465.79 224.05 507.71 286.38 552.44 312.98 585.57 279.41 618.71 191.16 637.12 99.81 652.63 46.08 682.73 38.46 735.86 83.76 824.18 156.72 929.57 244.48 1034.07 325.55 1085.13 389.13 1056.94 447.46 953.79 492.44 837.95 525.58Q837.92 525.59 837.92 525.59" opacity="0.43"></path><path d="M789.92 394.33C750.27 420.83 770.32 429.04 829.2 422.06 936.76 410.49 965.73 414.15 907.02 482.92 857.32 558.79 814.65 643.48 788.14 711.41 761.63 743.84 753.79 727.36 757.56 674.19 753.83 599.17 745.44 519.68 716.17 451.61 659.39 394.45 573.48 353.14 475.38 323.04 397.07 299.14 366.27 276.06 405.92 249.55 495.85 223.04 597.14 195.62 669.36 173.58 695.99 157.73 681.19 157.67 647.52 180.09 599.73 213.41 566.05 264.78 554.6 320.37 548.19 354.1 560.05 359.84 586.56 327.41 613.06 259.48 651.71 185.54 704.05 129.1 761.44 93.77 836.49 93.85 919.02 121.15 987.45 166.98 1030.38 221.81 1023.19 272.59 970.41 325.51 879.87 367.81 789.95 394.32Q789.92 394.33 789.92 394.33" opacity="0.65"></path><path d="M741.92 268.28C706 288.16 702.96 301.03 726.45 309.78 772.45 321.9 820.75 336.2 858.15 357.83 890.53 390.01 904.62 435.12 902.85 491.54 896.35 553.22 881.17 614.82 861.29 663.41 841.4 691.81 818.7 691.6 790.75 667.5 758.07 626.21 712.95 573.9 654.5 520.86 591.05 466.43 521.66 418.47 461.09 380.27 423.02 343.81 418 315.15 453.92 295.27 518.6 275.39 595.98 266.17 665.41 268.17 718.11 271.91 747.94 288.84 758.86 317.22 748.06 359.81 731.53 407.74 753.41 375.41 773.28 326.82 807.15 273.27 849.73 226.17 910.12 172.31 973.28 166.98 930.79 197.68 875.95 223.38 806.63 248.39 741.95 268.27Q741.92 268.28 741.92 268.28" opacity="0.68"></path><path d="M693.92 263.33C654.27 289.83 666.28 332.52 696.38 392.03 742.58 461.37 760.6 547.49 734.1 615.41 707.59 647.84 641.56 627.51 560.62 580.97 495.77 519.79 462.27 463.78 501.92 437.27 591.85 410.76 694.14 418.77 763.81 445.21 809.92 457 837.22 455.84 863.73 423.41 890.23 355.49 910.93 290.86 899.57 256.27 864.65 231.5 783.85 236.82 693.92 263.33Q693.92 263.33 693.92 263.33" opacity="0.71"></path></g></svg>