<svg id="visual" viewBox="0 0 900 200" width="900" height="200" xmlns="http://www.w3.org/2000/svg" xmlns:xlink="http://www.w3.org/1999/xlink" version="1.1"><path d="M0 73L13.7 80C27.3 87 54.7 101 82 100.5C109.3 100 136.7 85 163.8 86C191 87 218 104 245.2 113C272.3 122 299.7 123 327 119.3C354.3 115.7 381.7 107.3 409 108.3C436.3 109.3 463.7 119.7 491 121.3C518.3 123 545.7 116 573 109.8C600.3 103.7 627.7 98.3 654.8 92C682 85.7 709 78.3 736.2 83.2C763.3 88 790.7 105 818 104.2C845.3 103.3 872.7 84.7 886.3 75.3L900 66L900 201L886.3 201C872.7 201 845.3 201 818 201C790.7 201 763.3 201 736.2 201C709 201 682 201 654.8 201C627.7 201 600.3 201 573 201C545.7 201 518.3 201 491 201C463.7 201 436.3 201 409 201C381.7 201 354.3 201 327 201C299.7 201 272.3 201 245.2 201C218 201 191 201 163.8 201C136.7 201 109.3 201 82 201C54.7 201 27.3 201 13.7 201L0 201Z" fill="#fa7268"></path><path d="M0 115L13.7 112.5C27.3 110 54.7 105 82 108.7C109.3 112.3 136.7 124.7 163.8 125C191 125.3 218 113.7 245.2 109.3C272.3 105 299.7 108 327 115C354.3 122 381.7 133 409 135.2C436.3 137.3 463.7 130.7 491 126C518.3 121.3 545.7 118.7 573 117C600.3 115.3 627.7 114.7 654.8 119.3C682 124 709 134 736.2 138.8C763.3 143.7 790.7 143.3 818 135.3C845.3 127.3 872.7 111.7 886.3 103.8L900 96L900 201L886.3 201C872.7 201 845.3 201 818 201C790.7 201 763.3 201 736.2 201C709 201 682 201 654.8 201C627.7 201 600.3 201 573 201C545.7 201 518.3 201 491 201C463.7 201 436.3 201 409 201C381.7 201 354.3 201 327 201C299.7 201 272.3 201 245.2 201C218 201 191 201 163.8 201C136.7 201 109.3 201 82 201C54.7 201 27.3 201 13.7 201L0 201Z" fill="#ef5f67"></path><path d="M0 149L13.7 143.7C27.3 138.3 54.7 127.7 82 129.5C109.3 131.3 136.7 145.7 163.8 145.2C191 144.7 218 129.3 245.2 122.8C272.3 116.3 299.7 118.7 327 123.8C354.3 129 381.7 137 409 139.2C436.3 141.3 463.7 137.7 491 131.8C518.3 126 545.7 118 573 115.3C600.3 112.7 627.7 115.3 654.8 122.5C682 129.7 709 141.3 736.2 143.8C763.3 146.3 790.7 139.7 818 134.2C845.3 128.7 872.7 124.3 886.3 122.2L900 120L900 201L886.3 201C872.7 201 845.3 201 818 201C790.7 201 763.3 201 736.2 201C709 201 682 201 654.8 201C627.7 201 600.3 201 573 201C545.7 201 518.3 201 491 201C463.7 201 436.3 201 409 201C381.7 201 354.3 201 327 201C299.7 201 272.3 201 245.2 201C218 201 191 201 163.8 201C136.7 201 109.3 201 82 201C54.7 201 27.3 201 13.7 201L0 201Z" fill="#e34c67"></path><path d="M0 161L13.7 160.2C27.3 159.3 54.7 157.7 82 153.8C109.3 150 136.7 144 163.8 140.3C191 136.7 218 135.3 245.2 140.2C272.3 145 299.7 156 327 160.3C354.3 164.7 381.7 162.3 409 160.3C436.3 158.3 463.7 156.7 491 157.7C518.3 158.7 545.7 162.3 573 160.5C600.3 158.7 627.7 151.3 654.8 147C682 142.7 709 141.3 736.2 140.2C763.3 139 790.7 138 818 138.7C845.3 139.3 872.7 141.7 886.3 142.8L900 144L900 201L886.3 201C872.7 201 845.3 201 818 201C790.7 201 763.3 201 736.2 201C709 201 682 201 654.8 201C627.7 201 600.3 201 573 201C545.7 201 518.3 201 491 201C463.7 201 436.3 201 409 201C381.7 201 354.3 201 327 201C299.7 201 272.3 201 245.2 201C218 201 191 201 163.8 201C136.7 201 109.3 201 82 201C54.7 201 27.3 201 13.7 201L0 201Z" fill="#d53867"></path><path d="M0 168L13.7 170.5C27.3 173 54.7 178 82 177.3C109.3 176.7 136.7 170.3 163.8 170.5C191 170.7 218 177.3 245.2 178.2C272.3 179 299.7 174 327 170.3C354.3 166.7 381.7 164.3 409 163.5C436.3 162.7 463.7 163.3 491 165.3C518.3 167.3 545.7 170.7 573 171.2C600.3 171.7 627.7 169.3 654.8 170C682 170.7 709 174.3 736.2 177.3C763.3 180.3 790.7 182.7 818 181.8C845.3 181 872.7 177 886.3 175L900 173L900 201L886.3 201C872.7 201 845.3 201 818 201C790.7 201 763.3 201 736.2 201C709 201 682 201 654.8 201C627.7 201 600.3 201 573 201C545.7 201 518.3 201 491 201C463.7 201 436.3 201 409 201C381.7 201 354.3 201 327 201C299.7 201 272.3 201 245.2 201C218 201 191 201 163.8 201C136.7 201 109.3 201 82 201C54.7 201 27.3 201 13.7 201L0 201Z" fill="#c62368"></path></svg>