<svg id="visual" viewBox="0 0 900 200" width="900" height="200" xmlns="http://www.w3.org/2000/svg" xmlns:xlink="http://www.w3.org/1999/xlink" version="1.1"><path d="M0 93L13.7 100C27.3 107 54.7 121 82 127C109.3 133 136.7 131 163.8 125C191 119 218 109 245.2 107.7C272.3 106.3 299.7 113.7 327 119.2C354.3 124.7 381.7 128.3 409 122.7C436.3 117 463.7 102 491 96.3C518.3 90.7 545.7 94.3 573 100.2C600.3 106 627.7 114 654.8 118C682 122 709 122 736.2 117.2C763.3 112.3 790.7 102.7 818 93.5C845.3 84.3 872.7 75.7 886.3 71.3L900 67L900 0L886.3 0C872.7 0 845.3 0 818 0C790.7 0 763.3 0 736.2 0C709 0 682 0 654.8 0C627.7 0 600.3 0 573 0C545.7 0 518.3 0 491 0C463.7 0 436.3 0 409 0C381.7 0 354.3 0 327 0C299.7 0 272.3 0 245.2 0C218 0 191 0 163.8 0C136.7 0 109.3 0 82 0C54.7 0 27.3 0 13.7 0L0 0Z" fill="#fa7268"></path><path d="M0 107L13.7 101.2C27.3 95.3 54.7 83.7 82 74.7C109.3 65.7 136.7 59.3 163.8 56.3C191 53.3 218 53.7 245.2 61.7C272.3 69.7 299.7 85.3 327 86.7C354.3 88 381.7 75 409 75.7C436.3 76.3 463.7 90.7 491 89.7C518.3 88.7 545.7 72.3 573 66.2C600.3 60 627.7 64 654.8 71.5C682 79 709 90 736.2 96.7C763.3 103.3 790.7 105.7 818 105.7C845.3 105.7 872.7 103.3 886.3 102.2L900 101L900 0L886.3 0C872.7 0 845.3 0 818 0C790.7 0 763.3 0 736.2 0C709 0 682 0 654.8 0C627.7 0 600.3 0 573 0C545.7 0 518.3 0 491 0C463.7 0 436.3 0 409 0C381.7 0 354.3 0 327 0C299.7 0 272.3 0 245.2 0C218 0 191 0 163.8 0C136.7 0 109.3 0 82 0C54.7 0 27.3 0 13.7 0L0 0Z" fill="#ef5f67"></path><path d="M0 70L13.7 67.2C27.3 64.3 54.7 58.7 82 57.3C109.3 56 136.7 59 163.8 58.8C191 58.7 218 55.3 245.2 53.2C272.3 51 299.7 50 327 54.5C354.3 59 381.7 69 409 70.8C436.3 72.7 463.7 66.3 491 65.8C518.3 65.3 545.7 70.7 573 72.5C600.3 74.3 627.7 72.7 654.8 72.3C682 72 709 73 736.2 74.8C763.3 76.7 790.7 79.3 818 81.7C845.3 84 872.7 86 886.3 87L900 88L900 0L886.3 0C872.7 0 845.3 0 818 0C790.7 0 763.3 0 736.2 0C709 0 682 0 654.8 0C627.7 0 600.3 0 573 0C545.7 0 518.3 0 491 0C463.7 0 436.3 0 409 0C381.7 0 354.3 0 327 0C299.7 0 272.3 0 245.2 0C218 0 191 0 163.8 0C136.7 0 109.3 0 82 0C54.7 0 27.3 0 13.7 0L0 0Z" fill="#e34c67"></path><path d="M0 47L13.7 48.7C27.3 50.3 54.7 53.7 82 55.5C109.3 57.3 136.7 57.7 163.8 53.7C191 49.7 218 41.3 245.2 40.7C272.3 40 299.7 47 327 45.5C354.3 44 381.7 34 409 33.7C436.3 33.3 463.7 42.7 491 45.3C518.3 48 545.7 44 573 43.5C600.3 43 627.7 46 654.8 44.3C682 42.7 709 36.3 736.2 38.2C763.3 40 790.7 50 818 51.5C845.3 53 872.7 46 886.3 42.5L900 39L900 0L886.3 0C872.7 0 845.3 0 818 0C790.7 0 763.3 0 736.2 0C709 0 682 0 654.8 0C627.7 0 600.3 0 573 0C545.7 0 518.3 0 491 0C463.7 0 436.3 0 409 0C381.7 0 354.3 0 327 0C299.7 0 272.3 0 245.2 0C218 0 191 0 163.8 0C136.7 0 109.3 0 82 0C54.7 0 27.3 0 13.7 0L0 0Z" fill="#d53867"></path><path d="M0 13L13.7 14C27.3 15 54.7 17 82 17.2C109.3 17.3 136.7 15.7 163.8 17.8C191 20 218 26 245.2 28C272.3 30 299.7 28 327 25.7C354.3 23.3 381.7 20.7 409 19.2C436.3 17.7 463.7 17.3 491 21.3C518.3 25.3 545.7 33.7 573 33.2C600.3 32.7 627.7 23.3 654.8 23.2C682 23 709 32 736.2 36.3C763.3 40.7 790.7 40.3 818 39.5C845.3 38.7 872.7 37.3 886.3 36.7L900 36L900 0L886.3 0C872.7 0 845.3 0 818 0C790.7 0 763.3 0 736.2 0C709 0 682 0 654.8 0C627.7 0 600.3 0 573 0C545.7 0 518.3 0 491 0C463.7 0 436.3 0 409 0C381.7 0 354.3 0 327 0C299.7 0 272.3 0 245.2 0C218 0 191 0 163.8 0C136.7 0 109.3 0 82 0C54.7 0 27.3 0 13.7 0L0 0Z" fill="#c62368"></path></svg>